<mxfile host="app.diagrams.net" modified="2022-08-15T20:04:11.917Z" agent="5.0 (Macintosh; Intel Mac OS X 10_15_7) AppleWebKit/537.36 (KHTML, like Gecko) Chrome/104.0.0.0 Safari/537.36" etag="g1OACkgiFl5udT7NobH0" version="20.2.3" type="github">
  <diagram id="yIXNzJLWd6l4h0xg6FKV" name="Page-1">
    <mxGraphModel dx="1738" dy="620" grid="1" gridSize="10" guides="1" tooltips="1" connect="1" arrows="1" fold="1" page="1" pageScale="1" pageWidth="850" pageHeight="1100" math="0" shadow="0">
      <root>
        <mxCell id="0" />
        <mxCell id="1" parent="0" />
        <mxCell id="6cV-D4H_48-fDjoktTVr-1" value="" style="rounded=1;whiteSpace=wrap;html=1;fontSize=26;fontColor=#3BB7B0;labelBorderColor=none;spacing=2;strokeWidth=3;" vertex="1" parent="1">
          <mxGeometry x="-800" y="40" width="750" height="380" as="geometry" />
        </mxCell>
        <mxCell id="6cV-D4H_48-fDjoktTVr-2" value="" style="sketch=0;aspect=fixed;html=1;points=[];align=center;image;fontSize=12;image=img/lib/mscae/Kubernetes.svg;" vertex="1" parent="1">
          <mxGeometry x="-497" y="251.62" width="144.15" height="138.38" as="geometry" />
        </mxCell>
        <mxCell id="6cV-D4H_48-fDjoktTVr-3" value="" style="shape=image;verticalLabelPosition=bottom;labelBackgroundColor=default;verticalAlign=top;aspect=fixed;imageAspect=0;image=https://helm.sh/img/helm.svg;" vertex="1" parent="1">
          <mxGeometry x="-300" y="147.69" width="86.61" height="100" as="geometry" />
        </mxCell>
        <mxCell id="6cV-D4H_48-fDjoktTVr-4" value="" style="shape=image;verticalLabelPosition=bottom;labelBackgroundColor=default;verticalAlign=top;aspect=fixed;imageAspect=0;image=https://cncf-branding.netlify.app/img/projects/flux/horizontal/color/flux-horizontal-color.png;" vertex="1" parent="1">
          <mxGeometry x="-370.00000000000006" y="72.3" width="130" height="67" as="geometry" />
        </mxCell>
        <mxCell id="6cV-D4H_48-fDjoktTVr-5" value="" style="shape=image;verticalLabelPosition=bottom;labelBackgroundColor=default;verticalAlign=top;aspect=fixed;imageAspect=0;image=https://www.jetstack.io/blog/cert-manager-1.5/cert-manager-logo.png;" vertex="1" parent="1">
          <mxGeometry x="-570" y="163.92000000000002" width="90.84" height="87.7" as="geometry" />
        </mxCell>
        <mxCell id="6cV-D4H_48-fDjoktTVr-6" value="" style="shape=image;verticalLabelPosition=bottom;labelBackgroundColor=default;verticalAlign=top;aspect=fixed;imageAspect=0;image=https://raw.githubusercontent.com/docker-library/docs/a6cc2c5f4bc6658168f2a0abbb0307acaefff80e/traefik/logo.png;" vertex="1" parent="1">
          <mxGeometry x="-700" y="80" width="130" height="130" as="geometry" />
        </mxCell>
        <mxCell id="6cV-D4H_48-fDjoktTVr-7" value="" style="shape=image;verticalLabelPosition=bottom;labelBackgroundColor=default;verticalAlign=top;aspect=fixed;imageAspect=0;image=https://rancher.com/assets/img/brand-guidelines/assets/logos/png/color/rancher-logo-stacked-color.png;" vertex="1" parent="1">
          <mxGeometry x="-460" y="163.57000000000002" width="140" height="71.62" as="geometry" />
        </mxCell>
        <mxCell id="6cV-D4H_48-fDjoktTVr-8" value="" style="shape=image;verticalLabelPosition=bottom;labelBackgroundColor=default;verticalAlign=top;aspect=fixed;imageAspect=0;image=https://more.suse.com/rs/937-DCH-261/images/Harvester_logo_stacked.png;" vertex="1" parent="1">
          <mxGeometry x="-550" y="72.30000000000001" width="160" height="75.39" as="geometry" />
        </mxCell>
        <mxCell id="6cV-D4H_48-fDjoktTVr-9" value="" style="group" vertex="1" connectable="0" parent="1">
          <mxGeometry x="-220" y="160" width="140" height="120" as="geometry" />
        </mxCell>
        <mxCell id="6cV-D4H_48-fDjoktTVr-10" value="" style="shape=image;verticalLabelPosition=bottom;labelBackgroundColor=default;verticalAlign=top;aspect=fixed;imageAspect=0;image=https://docs.renovatebot.com/assets/images/logo.png;" vertex="1" parent="6cV-D4H_48-fDjoktTVr-9">
          <mxGeometry x="30" width="80" height="80" as="geometry" />
        </mxCell>
        <mxCell id="6cV-D4H_48-fDjoktTVr-11" value="&lt;font style=&quot;font-size: 26px;&quot;&gt;Renovate&lt;/font&gt;" style="text;html=1;align=center;verticalAlign=middle;resizable=0;points=[];autosize=1;strokeColor=none;fillColor=none;fontColor=#3BB7B0;fontSize=28;" vertex="1" parent="6cV-D4H_48-fDjoktTVr-9">
          <mxGeometry x="5" y="70" width="130" height="50" as="geometry" />
        </mxCell>
        <mxCell id="6cV-D4H_48-fDjoktTVr-12" value="" style="shape=image;verticalLabelPosition=bottom;labelBackgroundColor=default;verticalAlign=top;aspect=fixed;imageAspect=0;image=https://longhorn.io/img/logos/longhorn-horizontal-color.png;" vertex="1" parent="1">
          <mxGeometry x="-750" y="220" width="170" height="35.31" as="geometry" />
        </mxCell>
        <mxCell id="6cV-D4H_48-fDjoktTVr-13" value="" style="shape=image;verticalLabelPosition=bottom;labelBackgroundColor=default;verticalAlign=top;aspect=fixed;imageAspect=0;image=http://blog.inkubate.io/content/images/2018/04/metallb-logo-5.png;" vertex="1" parent="1">
          <mxGeometry x="-710" y="235.19" width="210" height="109.85" as="geometry" />
        </mxCell>
        <mxCell id="6cV-D4H_48-fDjoktTVr-14" value="" style="shape=image;verticalLabelPosition=bottom;labelBackgroundColor=default;verticalAlign=top;aspect=fixed;imageAspect=0;image=https://www.derdack.com/wp-content/uploads/sites/2/2021/09/prometheus-logo-3.png;" vertex="1" parent="1">
          <mxGeometry x="-340" y="290.00000000000006" width="230" height="120.31" as="geometry" />
        </mxCell>
        <mxCell id="6cV-D4H_48-fDjoktTVr-15" value="" style="shape=image;verticalLabelPosition=bottom;labelBackgroundColor=default;verticalAlign=top;aspect=fixed;imageAspect=0;image=https://www.freelogovectors.net/svg02/grafana_logo.svg;" vertex="1" parent="1">
          <mxGeometry x="-320" y="262.80999999999995" width="225.35" height="54.61" as="geometry" />
        </mxCell>
        <mxCell id="6cV-D4H_48-fDjoktTVr-16" value="" style="shape=image;verticalLabelPosition=bottom;labelBackgroundColor=default;verticalAlign=top;aspect=fixed;imageAspect=0;image=https://www.authelia.com/authelia.png;" vertex="1" parent="1">
          <mxGeometry x="-740" y="290" width="240" height="120" as="geometry" />
        </mxCell>
      </root>
    </mxGraphModel>
  </diagram>
</mxfile>
